<svg width="28" height="20" viewBox="0 0 28 20" fill="none" xmlns="http://www.w3.org/2000/svg">
<path d="M26.5179 7.92683H23.2031V4.46341C23.2031 3.92378 22.7642 3.4878 22.221 3.4878H12.553L8.95285 0.0670731C8.90704 0.0244748 8.84679 0.000534441 8.78404 0H0.982143C0.438895 0 0 0.435976 0 0.97561V19.0244C0 19.564 0.438895 20 0.982143 20H22.4051C22.8041 20 23.1663 19.7591 23.3167 19.3902L27.4294 9.26829C27.4754 9.15244 27.5 9.02744 27.5 8.90244C27.5 8.3628 27.0611 7.92683 26.5179 7.92683ZM20.9933 7.92683H5.3404C4.94141 7.92683 4.57924 8.16768 4.42885 8.53659L2.20982 14V2.19512H7.99526L11.666 5.68293H20.9933V7.92683Z" fill="#02344F"/>
</svg>
