<svg width="25" height="25" viewBox="0 0 25 25" fill="none" xmlns="http://www.w3.org/2000/svg">
<path fill-rule="evenodd" clip-rule="evenodd" d="M12.9326 14.3565C13.4412 14.0244 13.8241 13.5249 14.2601 13.0941L21.6452 5.74897C21.631 6.87779 21.4143 9.42088 21.9826 10.1747C22.7716 11.2231 24.5949 10.9247 24.9076 9.50392C25.0789 8.72412 24.9518 5.80217 24.9518 4.8005C24.9518 3.5043 25.2217 1.26483 24.4846 0.517472C23.754 -0.223397 21.4804 0.0490768 20.1996 0.0490768C19.1485 0.0490768 16.3351 -0.0832676 15.4864 0.0867041C14.0862 0.369558 13.7553 2.22887 14.8272 3.01515C15.6201 3.59772 18.0844 3.33563 19.2523 3.3525C19.0434 3.74175 11.762 10.9908 10.8926 11.7966C10.2321 12.4103 10.1568 13.2135 10.5695 13.9115C11.0548 14.7302 12.1929 14.8379 12.9326 14.3565V14.3565ZM21.0029 12.9332C20.3527 12.4752 19.4508 12.3792 18.8007 12.9747C18.0532 13.6585 18.2829 14.3864 18.2609 15.5827C18.2401 16.6998 18.3426 20.9945 18.2388 21.6433L3.3556 21.6588L3.32575 6.75063C4.29123 6.63127 8.88246 6.72728 10.4527 6.72987C13.1493 6.73506 13.1077 3.44721 10.5409 3.41218C9.31329 3.39531 1.70753 3.3019 1.09113 3.54323C-0.306482 4.09207 0.0374056 5.67631 0.0374056 7.30207L0.0361079 21.6199C0.0361079 22.2375 -0.0456465 23.3754 0.147709 23.8983C0.343661 24.4316 0.835485 24.865 1.4999 24.9389C2.37584 25.0362 9.52612 24.9558 11.0548 24.9558C12.4667 24.9558 19.748 25.1063 20.4968 24.852C21.8412 24.3953 21.5713 22.7046 21.5713 21.1879C21.5713 18.9146 21.583 16.644 21.5752 14.3708C21.5726 13.5781 21.4623 13.3341 21.0029 12.9332V12.9332Z" fill="#02344F"/>
</svg>
