<svg width="30" height="23" viewBox="0 0 30 23" fill="none" xmlns="http://www.w3.org/2000/svg">
<path d="M28.1156 0.00987562C28.2434 -0.00329187 28.3722 -0.00329187 28.5 0.00987562L14.9156 13.5755L1.36871 0.0848755C1.53022 0.0376943 1.69735 0.0124679 1.86559 0.00987562H28.1156Z" fill="#ABDFEC"/>
<path fill-rule="evenodd" clip-rule="evenodd" d="M16.2375 14.9066L29.8875 1.31287C29.9546 1.49646 29.9925 1.68942 30 1.88474V20.6347C30 21.132 29.8025 21.6089 29.4508 21.9606C29.0992 22.3122 28.6223 22.5097 28.125 22.5097H1.875C1.37772 22.5097 0.900805 22.3122 0.549175 21.9606C0.197544 21.6089 0 21.132 0 20.6347V1.88474C0.00198627 1.72635 0.024037 1.56884 0.065625 1.41599L13.5938 14.9066C13.9451 15.2558 14.4203 15.4519 14.9156 15.4519C15.411 15.4519 15.8862 15.2558 16.2375 14.9066ZM1.85625 20.6347H3.15938L9.99375 13.8566L8.67188 12.5347L1.85625 19.2941V20.6347ZM26.7938 20.6347H28.1062L28.0969 19.2941L21.2812 12.5347L19.9594 13.8566L26.7938 20.6347Z" fill="#ABDFEC"/>
</svg>
